<mxfile host="app.diagrams.net" modified="2023-11-10T02:18:37.682Z" agent="Mozilla/5.0 (Windows NT 10.0; Win64; x64) AppleWebKit/537.36 (KHTML, like Gecko) Chrome/116.0.0.0 Safari/537.36 OPR/102.0.0.0" etag="72A6jPuCcFg72WXkK36n" version="22.1.0" type="google">
  <diagram name="PÃ¡gina-1" id="eU_OnjKHGl1l2keSFJ5w">
    <mxGraphModel grid="1" page="1" gridSize="10" guides="1" tooltips="1" connect="1" arrows="1" fold="1" pageScale="1" pageWidth="827" pageHeight="1169" math="0" shadow="0">
      <root>
        <mxCell id="0" />
        <mxCell id="1" parent="0" />
        <mxCell id="cxnvhBLDz_0zPYzMjyCC-1" value="USUARIO" style="swimlane;fontStyle=1;align=center;verticalAlign=top;childLayout=stackLayout;horizontal=1;startSize=26;horizontalStack=0;resizeParent=1;resizeParentMax=0;resizeLast=0;collapsible=1;marginBottom=0;whiteSpace=wrap;html=1;" vertex="1" parent="1">
          <mxGeometry y="40" width="250" height="300" as="geometry" />
        </mxCell>
        <mxCell id="cxnvhBLDz_0zPYzMjyCC-2" value="&lt;b&gt;ATRIBUTOS&lt;/b&gt;&lt;br&gt;- CuitUsuario: string&amp;nbsp;&lt;br&gt;- ClavePass: string&lt;br&gt;- DenominacionNombreApellido: string" style="text;strokeColor=none;fillColor=none;align=left;verticalAlign=top;spacingLeft=4;spacingRight=4;overflow=hidden;rotatable=0;points=[[0,0.5],[1,0.5]];portConstraint=eastwest;whiteSpace=wrap;html=1;" vertex="1" parent="cxnvhBLDz_0zPYzMjyCC-1">
          <mxGeometry y="26" width="250" height="74" as="geometry" />
        </mxCell>
        <mxCell id="cxnvhBLDz_0zPYzMjyCC-3" value="" style="line;strokeWidth=1;fillColor=none;align=left;verticalAlign=middle;spacingTop=-1;spacingLeft=3;spacingRight=3;rotatable=0;labelPosition=right;points=[];portConstraint=eastwest;strokeColor=inherit;" vertex="1" parent="cxnvhBLDz_0zPYzMjyCC-1">
          <mxGeometry y="100" width="250" height="8" as="geometry" />
        </mxCell>
        <mxCell id="cxnvhBLDz_0zPYzMjyCC-4" value="&lt;b&gt;GETTERS&lt;/b&gt;&lt;br&gt;+ getCuitUsuario(void): string&lt;br&gt;+ getClavePass(void): string&lt;br style=&quot;border-color: var(--border-color);&quot;&gt;+ getCuitUsuario(void): string&lt;br&gt;&lt;br&gt;&lt;b&gt;SETTERS&lt;/b&gt;&lt;br&gt;+ setCuitUsuario(string): void&lt;br style=&quot;border-color: var(--border-color);&quot;&gt;+ setClavePass(string): void&lt;br style=&quot;border-color: var(--border-color);&quot;&gt;+ setCuitUsuario(string): void&lt;br&gt;&lt;br&gt;&lt;b&gt;METODOS&lt;/b&gt;&lt;br&gt;+ toJson(void): json" style="text;strokeColor=none;fillColor=none;align=left;verticalAlign=top;spacingLeft=4;spacingRight=4;overflow=hidden;rotatable=0;points=[[0,0.5],[1,0.5]];portConstraint=eastwest;whiteSpace=wrap;html=1;" vertex="1" parent="cxnvhBLDz_0zPYzMjyCC-1">
          <mxGeometry y="108" width="250" height="192" as="geometry" />
        </mxCell>
        <mxCell id="cxnvhBLDz_0zPYzMjyCC-22" value="CLIENTE" style="swimlane;fontStyle=1;align=center;verticalAlign=top;childLayout=stackLayout;horizontal=1;startSize=26;horizontalStack=0;resizeParent=1;resizeParentMax=0;resizeLast=0;collapsible=1;marginBottom=0;whiteSpace=wrap;html=1;" vertex="1" parent="1">
          <mxGeometry x="270" y="40" width="270" height="330" as="geometry" />
        </mxCell>
        <mxCell id="cxnvhBLDz_0zPYzMjyCC-23" value="&lt;b&gt;ATRIBUTOS&lt;/b&gt;&lt;br&gt;- CuitUsuario: string&lt;br&gt;- CuitCliente: string&lt;br&gt;- TipoEmpresa: string&lt;br&gt;- DenominacinNombreApellido: string" style="text;strokeColor=none;fillColor=none;align=left;verticalAlign=top;spacingLeft=4;spacingRight=4;overflow=hidden;rotatable=0;points=[[0,0.5],[1,0.5]];portConstraint=eastwest;whiteSpace=wrap;html=1;" vertex="1" parent="cxnvhBLDz_0zPYzMjyCC-22">
          <mxGeometry y="26" width="270" height="84" as="geometry" />
        </mxCell>
        <mxCell id="cxnvhBLDz_0zPYzMjyCC-24" value="" style="line;strokeWidth=1;fillColor=none;align=left;verticalAlign=middle;spacingTop=-1;spacingLeft=3;spacingRight=3;rotatable=0;labelPosition=right;points=[];portConstraint=eastwest;strokeColor=inherit;" vertex="1" parent="cxnvhBLDz_0zPYzMjyCC-22">
          <mxGeometry y="110" width="270" height="8" as="geometry" />
        </mxCell>
        <mxCell id="cxnvhBLDz_0zPYzMjyCC-25" value="&lt;b&gt;GETTERS&lt;/b&gt;&lt;br&gt;+ getCuitUsuario(void): string&lt;br style=&quot;border-color: var(--border-color);&quot;&gt;+ getCuitCliente(void): string&lt;br style=&quot;border-color: var(--border-color);&quot;&gt;+ getTipoEmpresa(void): string&lt;br style=&quot;border-color: var(--border-color);&quot;&gt;+ getDenominacinNombreApellido(void): string&lt;br&gt;&lt;br&gt;&lt;b&gt;SETTERS&lt;/b&gt;&lt;br&gt;+ setCuitUsuario(string): void&lt;br style=&quot;border-color: var(--border-color);&quot;&gt;+ setCuitCliente(string): void&lt;br style=&quot;border-color: var(--border-color);&quot;&gt;+ setTipoEmpresa(string): void&lt;br style=&quot;border-color: var(--border-color);&quot;&gt;+ setDenominacinNombreApellido(string): void&lt;br&gt;&lt;br&gt;&lt;b&gt;METODOS&lt;br&gt;&lt;/b&gt;+ toJson(void): json&lt;b&gt;&lt;br&gt;&lt;/b&gt;" style="text;strokeColor=none;fillColor=none;align=left;verticalAlign=top;spacingLeft=4;spacingRight=4;overflow=hidden;rotatable=0;points=[[0,0.5],[1,0.5]];portConstraint=eastwest;whiteSpace=wrap;html=1;" vertex="1" parent="cxnvhBLDz_0zPYzMjyCC-22">
          <mxGeometry y="118" width="270" height="212" as="geometry" />
        </mxCell>
        <mxCell id="cxnvhBLDz_0zPYzMjyCC-26" value="PRODUCTO" style="swimlane;fontStyle=1;align=center;verticalAlign=top;childLayout=stackLayout;horizontal=1;startSize=26;horizontalStack=0;resizeParent=1;resizeParentMax=0;resizeLast=0;collapsible=1;marginBottom=0;whiteSpace=wrap;html=1;" vertex="1" parent="1">
          <mxGeometry y="400" width="250" height="420" as="geometry" />
        </mxCell>
        <mxCell id="cxnvhBLDz_0zPYzMjyCC-27" value="&lt;b&gt;ATRIBUTOS&lt;/b&gt;&lt;br&gt;- CuitUsuario: string&amp;nbsp;&lt;br&gt;- IdProducto: int&lt;br&gt;- DenominacionProducto: string&lt;br&gt;- PrecioUnitario: int&lt;br&gt;- CantidadDisponible: int&lt;br&gt;- CantidadVendida: int" style="text;strokeColor=none;fillColor=none;align=left;verticalAlign=top;spacingLeft=4;spacingRight=4;overflow=hidden;rotatable=0;points=[[0,0.5],[1,0.5]];portConstraint=eastwest;whiteSpace=wrap;html=1;" vertex="1" parent="cxnvhBLDz_0zPYzMjyCC-26">
          <mxGeometry y="26" width="250" height="114" as="geometry" />
        </mxCell>
        <mxCell id="cxnvhBLDz_0zPYzMjyCC-28" value="" style="line;strokeWidth=1;fillColor=none;align=left;verticalAlign=middle;spacingTop=-1;spacingLeft=3;spacingRight=3;rotatable=0;labelPosition=right;points=[];portConstraint=eastwest;strokeColor=inherit;" vertex="1" parent="cxnvhBLDz_0zPYzMjyCC-26">
          <mxGeometry y="140" width="250" height="8" as="geometry" />
        </mxCell>
        <mxCell id="cxnvhBLDz_0zPYzMjyCC-29" value="&lt;b&gt;GETTERS&lt;/b&gt;&lt;br&gt;+ getCuitUsuario(void): string&amp;nbsp;&lt;br style=&quot;border-color: var(--border-color);&quot;&gt;+ getIdProducto(void): int&lt;br style=&quot;border-color: var(--border-color);&quot;&gt;+ getDenominacionProducto(void): string&lt;br style=&quot;border-color: var(--border-color);&quot;&gt;+ getPrecioUnitario(void): int&lt;br style=&quot;border-color: var(--border-color);&quot;&gt;+ getCantidadDisponible(void): int&lt;br style=&quot;border-color: var(--border-color);&quot;&gt;+ getCantidadVendida(void): int&lt;br&gt;&lt;br&gt;&lt;b&gt;SETTERS&lt;/b&gt;&lt;br&gt;+ setCuitUsuario(string): void&lt;br style=&quot;border-color: var(--border-color);&quot;&gt;+ setIdProducto(int): void&lt;br style=&quot;border-color: var(--border-color);&quot;&gt;+ setDenominacionProducto(string): void&lt;br style=&quot;border-color: var(--border-color);&quot;&gt;+ setPrecioUnitario(int): void&lt;br style=&quot;border-color: var(--border-color);&quot;&gt;+ setCantidadDisponible(int): void&lt;br style=&quot;border-color: var(--border-color);&quot;&gt;+ setCantidadVendida(int): void&lt;br style=&quot;border-color: var(--border-color);&quot;&gt;&lt;br&gt;&lt;b&gt;METODOS&lt;br&gt;&lt;/b&gt;+ toJson(void): json&lt;b&gt;&lt;br&gt;&lt;/b&gt;" style="text;strokeColor=none;fillColor=none;align=left;verticalAlign=top;spacingLeft=4;spacingRight=4;overflow=hidden;rotatable=0;points=[[0,0.5],[1,0.5]];portConstraint=eastwest;whiteSpace=wrap;html=1;" vertex="1" parent="cxnvhBLDz_0zPYzMjyCC-26">
          <mxGeometry y="148" width="250" height="272" as="geometry" />
        </mxCell>
        <mxCell id="cxnvhBLDz_0zPYzMjyCC-30" value="SERVICIO" style="swimlane;fontStyle=1;align=center;verticalAlign=top;childLayout=stackLayout;horizontal=1;startSize=26;horizontalStack=0;resizeParent=1;resizeParentMax=0;resizeLast=0;collapsible=1;marginBottom=0;whiteSpace=wrap;html=1;" vertex="1" parent="1">
          <mxGeometry x="270" y="400" width="250" height="330" as="geometry" />
        </mxCell>
        <mxCell id="cxnvhBLDz_0zPYzMjyCC-31" value="&lt;b&gt;ATRIBUTOS&lt;/b&gt;&lt;br&gt;- CuitUsuario: string&amp;nbsp;&lt;br&gt;- IdServicio: int&lt;br&gt;- DenominacionServicio: string&lt;br&gt;- PrecioHora: int&lt;br&gt;" style="text;strokeColor=none;fillColor=none;align=left;verticalAlign=top;spacingLeft=4;spacingRight=4;overflow=hidden;rotatable=0;points=[[0,0.5],[1,0.5]];portConstraint=eastwest;whiteSpace=wrap;html=1;" vertex="1" parent="cxnvhBLDz_0zPYzMjyCC-30">
          <mxGeometry y="26" width="250" height="84" as="geometry" />
        </mxCell>
        <mxCell id="cxnvhBLDz_0zPYzMjyCC-32" value="" style="line;strokeWidth=1;fillColor=none;align=left;verticalAlign=middle;spacingTop=-1;spacingLeft=3;spacingRight=3;rotatable=0;labelPosition=right;points=[];portConstraint=eastwest;strokeColor=inherit;" vertex="1" parent="cxnvhBLDz_0zPYzMjyCC-30">
          <mxGeometry y="110" width="250" height="8" as="geometry" />
        </mxCell>
        <mxCell id="cxnvhBLDz_0zPYzMjyCC-33" value="&lt;b&gt;GETTERS&lt;/b&gt;&lt;br&gt;+ getCuitUsuario(void): string&amp;nbsp;&lt;br style=&quot;border-color: var(--border-color);&quot;&gt;+ getIdServicio(void): int&lt;br style=&quot;border-color: var(--border-color);&quot;&gt;+ getDenominacionServicio(void): string&lt;br style=&quot;border-color: var(--border-color);&quot;&gt;+ getPrecioHora(void): int&lt;br&gt;&lt;br&gt;&lt;b&gt;SETTERS&lt;/b&gt;&lt;br&gt;+ setCuitUsuario(string): void&lt;br style=&quot;border-color: var(--border-color);&quot;&gt;+ setIdServicio(int): void&lt;br style=&quot;border-color: var(--border-color);&quot;&gt;+ setDenominacionServicio(string): void&lt;br style=&quot;border-color: var(--border-color);&quot;&gt;+ setPrecioHora(int): void&lt;br&gt;&lt;br&gt;&lt;b&gt;METODOS&lt;br&gt;&lt;/b&gt;+ toJson(void): json&lt;b&gt;&lt;br&gt;&lt;/b&gt;" style="text;strokeColor=none;fillColor=none;align=left;verticalAlign=top;spacingLeft=4;spacingRight=4;overflow=hidden;rotatable=0;points=[[0,0.5],[1,0.5]];portConstraint=eastwest;whiteSpace=wrap;html=1;" vertex="1" parent="cxnvhBLDz_0zPYzMjyCC-30">
          <mxGeometry y="118" width="250" height="212" as="geometry" />
        </mxCell>
        <mxCell id="cxnvhBLDz_0zPYzMjyCC-35" value="FACTURACION" style="swimlane;fontStyle=1;align=center;verticalAlign=top;childLayout=stackLayout;horizontal=1;startSize=26;horizontalStack=0;resizeParent=1;resizeParentMax=0;resizeLast=0;collapsible=1;marginBottom=0;whiteSpace=wrap;html=1;" vertex="1" parent="1">
          <mxGeometry x="550" y="250" width="270" height="640" as="geometry" />
        </mxCell>
        <mxCell id="cxnvhBLDz_0zPYzMjyCC-36" value="&lt;b&gt;ATRIBUTOS&lt;/b&gt;&lt;br&gt;- CuitUsuario: string&amp;nbsp;&lt;br&gt;- CuitCliente: string&amp;nbsp;&lt;br&gt;- IdProducto: int&lt;br&gt;- IdServicio: int&lt;br&gt;- IdOperacion: int&lt;br&gt;- FechaOperacion: date&lt;br&gt;- TipoComprador: string&lt;br&gt;- CantidadProducto_HorasServicios: int&lt;br&gt;- PrecioUnitarioOperacion: int&lt;br&gt;- Iva: int&lt;br&gt;- TotalOperacion: int" style="text;strokeColor=none;fillColor=none;align=left;verticalAlign=top;spacingLeft=4;spacingRight=4;overflow=hidden;rotatable=0;points=[[0,0.5],[1,0.5]];portConstraint=eastwest;whiteSpace=wrap;html=1;" vertex="1" parent="cxnvhBLDz_0zPYzMjyCC-35">
          <mxGeometry y="26" width="270" height="194" as="geometry" />
        </mxCell>
        <mxCell id="cxnvhBLDz_0zPYzMjyCC-37" value="" style="line;strokeWidth=1;fillColor=none;align=left;verticalAlign=middle;spacingTop=-1;spacingLeft=3;spacingRight=3;rotatable=0;labelPosition=right;points=[];portConstraint=eastwest;strokeColor=inherit;" vertex="1" parent="cxnvhBLDz_0zPYzMjyCC-35">
          <mxGeometry y="220" width="270" height="8" as="geometry" />
        </mxCell>
        <mxCell id="cxnvhBLDz_0zPYzMjyCC-38" value="&lt;b&gt;GETTERS&lt;/b&gt;&lt;br&gt;+ getCuitUsuario(void): string&amp;nbsp;&lt;br style=&quot;border-color: var(--border-color);&quot;&gt;+ getCuitCliente(void): string&amp;nbsp;&lt;br style=&quot;border-color: var(--border-color);&quot;&gt;+ getIdProducto(void): int&lt;br style=&quot;border-color: var(--border-color);&quot;&gt;+ getIdServicio(void): int&lt;br style=&quot;border-color: var(--border-color);&quot;&gt;+ getIdOperacion(void): int&lt;br style=&quot;border-color: var(--border-color);&quot;&gt;+ getFechaOperacion(void): date&lt;br style=&quot;border-color: var(--border-color);&quot;&gt;+ getTipoComprador(void): string&lt;br style=&quot;border-color: var(--border-color);&quot;&gt;+ getCantidadProducto_HorasServicios(void): int&lt;br style=&quot;border-color: var(--border-color);&quot;&gt;+ getPrecioUnitarioOperacion(void): int&lt;br style=&quot;border-color: var(--border-color);&quot;&gt;+ getIva(void): int&lt;br style=&quot;border-color: var(--border-color);&quot;&gt;+ getTotalOperacion(void): int&lt;br&gt;&lt;br&gt;&lt;b&gt;SETTERS&lt;/b&gt;&lt;br&gt;+ setCuitUsuario(string): void&lt;br style=&quot;border-color: var(--border-color);&quot;&gt;+ setCuitCliente(string): void&lt;br style=&quot;border-color: var(--border-color);&quot;&gt;+ setIdProducto(int): void&lt;br style=&quot;border-color: var(--border-color);&quot;&gt;+ setIdServicio(int): void&lt;br style=&quot;border-color: var(--border-color);&quot;&gt;+ setIdOperacion(int): void&lt;br style=&quot;border-color: var(--border-color);&quot;&gt;+ setFechaOperacion(date): void&lt;br style=&quot;border-color: var(--border-color);&quot;&gt;+ setTipoComprador(strin): void&lt;br style=&quot;border-color: var(--border-color);&quot;&gt;+ setCantidadProducto_HorasServicios(int): void&lt;br style=&quot;border-color: var(--border-color);&quot;&gt;+ setPrecioUnitarioOperacion(int): void&lt;br style=&quot;border-color: var(--border-color);&quot;&gt;+ setIva(int): void&lt;br style=&quot;border-color: var(--border-color);&quot;&gt;+ setTotalOperacion(int): void&lt;br style=&quot;border-color: var(--border-color);&quot;&gt;&lt;br&gt;&lt;b&gt;METODOS&lt;br&gt;&lt;/b&gt;+ toJson(void): json&lt;b&gt;&lt;br&gt;&lt;/b&gt;" style="text;strokeColor=none;fillColor=none;align=left;verticalAlign=top;spacingLeft=4;spacingRight=4;overflow=hidden;rotatable=0;points=[[0,0.5],[1,0.5]];portConstraint=eastwest;whiteSpace=wrap;html=1;" vertex="1" parent="cxnvhBLDz_0zPYzMjyCC-35">
          <mxGeometry y="228" width="270" height="412" as="geometry" />
        </mxCell>
      </root>
    </mxGraphModel>
  </diagram>
</mxfile>
